<svg viewBox="0 0 160 160" xmlns="http://www.w3.org/2000/svg">
  <!-- 背景圆 -->
  <circle cx="80" cy="80" r="76" fill="#1E3A5F"/>
  <!-- 顶部老人剪影 + 心电波 -->
  <path d="M80 28 C55 28 38 45 38 62 C38 79 55 82 65 82 L80 82 L95 82 C105 82 122 79 122 62 C122 45 105 28 80 28Z" fill="white" opacity="0.9"/>
  <path d="M50 68 Q60 60 70 68 Q80 76 90 68 Q100 60 110 68" stroke="#60A5FA" stroke-width="3" fill="none" stroke-linecap="round"/>
  <!-- 中部 "社区" 三个区块 -->
  <rect x="30" y="88" width="28" height="20" rx="4" fill="#60A5FA" opacity="0.8"/>
  <rect x="66" y="88" width="28" height="20" rx="4" fill="#3B82F6" opacity="0.9"/>
  <rect x="102" y="88" width="28" height="20" rx="4" fill="#2563EB" opacity="0.8"/>
  <!-- 连接线 -->
  <path d="M80 82 L80 88" stroke="#93C5FD" stroke-width="3" stroke-linecap="round"/>
  <path d="M58 82 L58 88" stroke="#93C5FD" stroke-width="2" stroke-linecap="round"/>
  <path d="M102 82 L102 88" stroke="#93C5FD" stroke-width="2" stroke-linecap="round"/>
  <!-- 底部服务人员图标 -->
  <circle cx="44" cy="120" r="10" fill="white" opacity="0.7"/>
  <path d="M44 114 C38 114 34 118 34 122 C34 126 38 130 44 130 C50 130 54 126 54 122 C54 118 50 114 44 114Z" fill="#1E3A5F"/>
  <circle cx="80" cy="120" r="10" fill="white" opacity="0.85"/>
  <path d="M80 114 C74 114 70 118 70 122 C70 126 74 130 80 130 C86 130 90 126 90 122 C90 118 86 114 80 114Z" fill="#1E3A5F"/>
  <circle cx="116" cy="120" r="10" fill="white" opacity="0.7"/>
  <path d="M116 114 C110 114 106 118 106 122 C106 126 110 130 116 130 C122 130 126 126 126 122 C126 118 122 114 116 114Z" fill="#1E3A5F"/>
  <!-- 底部横线装饰 -->
  <rect x="40" y="136" width="80" height="3" rx="1.5" fill="#60A5FA" opacity="0.5"/>
</svg>
