<svg width="128" height="128" viewBox="0 0 128 128" xmlns="http://www.w3.org/2000/svg">
  <defs>
    <linearGradient id="bg" x1="0" y1="0" x2="1" y2="1">
      <stop offset="0%" stop-color="#1d4ed8"/>
      <stop offset="100%" stop-color="#4338ca"/>
    </linearGradient>
  </defs>
  <!-- 背景圆 -->
  <rect width="128" height="128" rx="24" fill="url(#bg)"/>
  <!-- 平台/窗口图标 -->
  <rect x="20" y="36" width="88" height="60" rx="8" fill="white" opacity="0.95"/>
  <rect x="20" y="36" width="88" height="14" rx="8" fill="white"/>
  <rect x="20" y="44" width="88" height="6" fill="white"/>
  <!-- 标题栏三个点 -->
  <circle cx="30" cy="43" r="3" fill="#ef4444" opacity="0.9"/>
  <circle cx="40" cy="43" r="3" fill="#f59e0b" opacity="0.9"/>
  <circle cx="50" cy="43" r="3" fill="#22c55e" opacity="0.9"/>
  <!-- 内容区线条 -->
  <rect x="28" y="60" width="30" height="4" rx="2" fill="#93c5fd" opacity="0.8"/>
  <rect x="28" y="68" width="50" height="3" rx="1.5" fill="#bfdbfe" opacity="0.6"/>
  <rect x="28" y="75" width="42" height="3" rx="1.5" fill="#bfdbfe" opacity="0.6"/>
  <rect x="28" y="82" width="55" height="3" rx="1.5" fill="#bfdbfe" opacity="0.6"/>
  <!-- 底部数字/数据条 -->
  <rect x="28" y="92" width="16" height="4" rx="2" fill="#60a5fa" opacity="0.7"/>
  <rect x="48" y="92" width="10" height="4" rx="2" fill="#93c5fd" opacity="0.7"/>
  <rect x="62" y="92" width="22" height="4" rx="2" fill="#bfdbfe" opacity="0.7"/>
</svg>
